<?xml version="1.0" encoding="utf-8"?>
<!-- Generator: Adobe Illustrator 17.0.0, SVG Export Plug-In . SVG Version: 6.00 Build 0)  -->
<!DOCTYPE svg PUBLIC "-//W3C//DTD SVG 1.1//EN" "http://www.w3.org/Graphics/SVG/1.1/DTD/svg11.dtd">
<svg version="1.1" id="Layer_1" xmlns="http://www.w3.org/2000/svg" xmlns:xlink="http://www.w3.org/1999/xlink" x="0px" y="0px"
	 width="302px" height="301px" viewBox="0 0 302 301" enable-background="new 0 0 302 301" xml:space="preserve">
<g>
	<path fill="#D24A27" d="M114.632,111.043c0,0,19.5-0.75,23.75,24.75c0,0,7,35.25-19,44h33.75c0,0,32.25,0,38.75-30.25
		c0,0-14.083,4.501-20.25-18c0,0-4.417-25.082-28.75-29.75C142.882,101.793,122.882,99.043,114.632,111.043z"/>
	<path fill="#D24A27" d="M107.632,117.293c0,0,15.083,3.479,12.5,28.25c0,0-3.25,16.25-18.75,16.5c0,0-7.5,1-13.25-8
		c0,0,2.75,18.75,18,22.25c0,0,23.082,3.5,27.75-21c0,0,4.75-31-16.5-39.25C117.382,116.043,111.632,113.793,107.632,117.293z"/>
	<path fill="#D24A27" d="M98.939,122.01c0,0,9.442,3.407,8.567,16.65c0,0-1.625,9.007-11.5,9.591c0,0-4.365,0.705-7.869-4.46
		c0,0,1.908,10.909,10.872,12.708c0,0,12.688,2.292,15.873-12.713c0,0,2.277-18.186-10.269-22.663
		C104.614,121.124,101.219,119.902,98.939,122.01z"/>
	<path fill="#D24A27" d="M88.132,125.793c-3.329,3.008-3.93,8.258-0.143,12.455c3.787,4.195,9.557,5.159,12.889,2.153
		c3.33-3.007,2.962-8.846-0.824-13.042C96.265,123.163,91.465,122.788,88.132,125.793z"/>
</g>
</svg>
