<?xml version="1.0" encoding="utf-8"?>
<!-- Generator: Adobe Illustrator 17.0.0, SVG Export Plug-In . SVG Version: 6.00 Build 0)  -->
<!DOCTYPE svg PUBLIC "-//W3C//DTD SVG 1.1//EN" "http://www.w3.org/Graphics/SVG/1.1/DTD/svg11.dtd">
<svg version="1.1" id="Layer_1" xmlns="http://www.w3.org/2000/svg" xmlns:xlink="http://www.w3.org/1999/xlink" x="0px" y="0px"
	 width="565px" height="241px" viewBox="0 0 565 241" enable-background="new 0 0 565 241" xml:space="preserve">
<g>
	<path fill="#D24A27" d="M243.956,28.114c0,0,32.394-1.246,39.454,41.115c0,0,11.628,58.558-31.563,73.093h56.066
		c0,0,53.574,0,64.372-50.252c0,0-23.395,7.477-33.64-29.902c0,0-7.338-41.667-47.76-49.421
		C290.886,12.748,257.661,8.18,243.956,28.114z"/>
	<path fill="#D24A27" d="M232.328,38.497c0,0,25.056,5.779,20.765,46.929c0,0-5.399,26.995-31.148,27.41
		c0,0-12.459,1.661-22.011-13.29c0,0,4.568,31.148,29.902,36.962c0,0,38.344,5.814,46.099-34.885c0,0,7.891-51.498-27.41-65.203
		C248.525,36.42,238.973,32.683,232.328,38.497z"/>
	<path fill="#D24A27" d="M217.887,46.333c0,0,15.685,5.66,14.232,27.659c0,0-2.699,14.963-19.104,15.933
		c0,0-7.251,1.171-13.072-7.409c0,0,3.17,18.122,18.061,21.111c0,0,21.077,3.808,26.368-21.119c0,0,3.783-30.211-17.057-37.648
		C227.314,44.861,221.675,42.831,217.887,46.333z"/>
	<path fill="#D24A27" d="M199.934,52.617c-5.53,4.997-6.529,13.718-0.238,20.69c6.291,6.969,15.876,8.57,21.411,3.577
		c5.532-4.995,4.921-14.695-1.369-21.666C213.447,48.248,205.471,47.625,199.934,52.617z"/>
</g>
<g enable-background="new    ">
	<path fill="#FFFFFF" d="M43.044,152.902c-1.076,0-1.899,0.465-2.467,1.391c-0.269,0.42-0.404,0.896-0.404,1.436v24.535
		c0,4.035-1.031,7.176-3.095,9.418c-1.884,2.033-4.097,3.051-6.638,3.051c-1.974,0-3.977-0.555-6.01-1.66l0.135-0.449
		c0.568,0.119,1.106,0.18,1.615,0.18c1.226,0,2.317-0.312,3.274-0.941c2.661-1.676,3.992-4.92,3.992-9.732v-24.4
		c-0.03-1.105-0.509-1.93-1.436-2.467c-0.448-0.238-0.927-0.359-1.435-0.359h-0.583v-0.447h13.635v0.447h-0.583V152.902z"/>
	<path fill="#FFFFFF" d="M80.855,152.902h-0.762c-0.628,0-1.174,0.201-1.637,0.605c-0.464,0.404-0.695,0.904-0.695,1.502v17.494
		c0,3.678-1.151,6.592-3.454,8.746c-2.303,2.152-5.458,3.229-9.464,3.229c-4.725,0-8.343-1.053-10.854-3.162
		c-2.512-2.107-3.768-5.029-3.768-8.768v-17.404c0-0.656-0.232-1.195-0.695-1.613c-0.464-0.42-1.024-0.629-1.682-0.629h-0.717
		v-0.447h12.917v0.447h-0.718c-0.658,0-1.211,0.201-1.66,0.605c-0.448,0.404-0.688,0.92-0.717,1.547v17.135
		c0,3.17,0.777,5.682,2.332,7.535c1.555,1.854,3.693,2.781,6.414,2.781s4.874-0.875,6.459-2.625
		c1.584-1.748,2.392-4.117,2.422-7.109v-17.717c0-0.627-0.232-1.143-0.695-1.547c-0.464-0.404-1.024-0.605-1.682-0.605h-0.718
		v-0.447h9.374V152.902z"/>
	<path fill="#FFFFFF" d="M84.488,179.68c0-2.152,0.463-3.992,1.391-5.518h0.403c-0.03,0.24-0.045,0.479-0.045,0.719
		c0,2.062,0.74,3.865,2.22,5.404c1.48,1.541,3.506,2.311,6.078,2.311c2.003,0,3.566-0.479,4.687-1.436
		c1.122-0.957,1.682-2.168,1.682-3.633c0-1.764-1.196-3.305-3.588-4.621l-7.804-5.158c-1.555-0.896-2.669-1.98-3.341-3.25
		c-0.673-1.271-1.009-2.564-1.009-3.881c0-2.811,0.889-4.979,2.668-6.504s4.06-2.287,6.84-2.287c1.644,0,3.678,0.15,6.1,0.449h2.826
		l-0.583,6.592h-0.448c0-1.553-0.576-2.803-1.727-3.744c-1.151-0.941-2.684-1.412-4.597-1.412c-2.333,0-4.022,0.717-5.068,2.152
		c-0.538,0.688-0.808,1.465-0.808,2.332c0,1.436,1.046,2.766,3.14,3.992l8.567,5.561c2.691,1.557,4.037,3.844,4.037,6.863
		c0,3.199-1.084,5.645-3.252,7.334s-5.046,2.533-8.634,2.533c-2.034,0-3.91-0.246-5.629-0.74c-1.72-0.492-2.983-1.158-3.79-1.996
		C84.592,181.176,84.488,180.486,84.488,179.68z"/>
	<path fill="#FFFFFF" d="M126.515,154.293v26.328c0.029,0.779,0.321,1.436,0.875,1.975c0.553,0.537,1.218,0.807,1.996,0.807h0.538
		l0.045,0.449h-13.635v-0.449h0.583c0.747,0,1.397-0.27,1.951-0.807c0.553-0.539,0.859-1.182,0.919-1.93v-26.373h-6.055
		c-1.375,0.029-2.467,0.465-3.274,1.301c-0.808,0.838-1.211,1.93-1.211,3.273v0.539h-0.449v-7.805
		c0.418,0.18,1.173,0.359,2.265,0.539c1.091,0.18,2.1,0.27,3.027,0.27h18.076c1.465-0.031,2.661-0.15,3.588-0.359
		c0.926-0.209,1.495-0.359,1.705-0.449v7.805h-0.449v-0.539c0-1.344-0.404-2.436-1.211-3.273c-0.808-0.836-1.899-1.271-3.274-1.301
		h-6.01L126.515,154.293L126.515,154.293z"/>
	<path fill="#FFFFFF" d="M151.721,183.402c0.777,0,1.442-0.275,1.996-0.83c0.553-0.553,0.844-1.217,0.875-1.996v-24.893
		c-0.03-1.076-0.523-1.885-1.48-2.422c-0.419-0.238-0.882-0.359-1.391-0.359h-0.583v-0.447h13.635l-0.045,0.447h-0.538
		c-0.778,0-1.451,0.27-2.019,0.809c-0.568,0.537-0.852,1.195-0.852,1.973v24.893c0,0.779,0.284,1.443,0.852,1.996
		c0.568,0.555,1.241,0.83,2.019,0.83h0.538l0.045,0.449h-13.635v-0.449h0.583V183.402z M196.26,191.477
		c-2.183,1.135-4.171,1.703-5.965,1.703c-1.794,0-3.409-0.254-4.844-0.762c-3.559-1.285-7.192-4.232-10.899-8.836l-11.796-14.533
		l10.63-14.082c0.239-0.299,0.359-0.568,0.359-0.809c0-0.238-0.045-0.447-0.135-0.627c-0.24-0.449-0.658-0.674-1.256-0.674h-0.448
		v-0.402h10.271v0.402h-0.179c-2.004,0-3.633,0.719-4.889,2.152l-8.746,10.406l12.2,15.16c2.721,3.59,5.277,6.189,7.67,7.805
		c2.392,1.615,5.053,2.496,7.984,2.646L196.26,191.477z"/>
	<path fill="#FFFFFF" d="M185.854,183.402c0.777,0,1.442-0.275,1.996-0.83c0.553-0.553,0.844-1.217,0.875-1.996v-24.982
		c-0.09-1.047-0.583-1.824-1.48-2.332c-0.449-0.238-0.913-0.359-1.391-0.359h-0.583v-0.447h17.179c0.926,0,1.943-0.09,3.05-0.27
		c1.106-0.18,1.884-0.359,2.333-0.539v7.85h-0.449v-0.539c0-1.346-0.396-2.428-1.188-3.252c-0.792-0.82-1.861-1.262-3.207-1.322
		h-7.535v13.053h5.92c1.106-0.029,2.019-0.412,2.736-1.145c0.717-0.732,1.076-1.637,1.076-2.713v-0.404h0.449v10.361h-0.449v-0.359
		c0-1.494-0.598-2.602-1.794-3.318c-0.599-0.33-1.256-0.508-1.974-0.539h-5.965v12.604h5.875c2.183,0,4.015-0.627,5.495-1.883
		s2.579-3.035,3.297-5.338h0.448l-2.063,9.15h-23.234v-0.449h0.583L185.854,183.402L185.854,183.402z"/>
	<path fill="#FFFFFF" d="M213.976,183.402c0.777,0,1.442-0.275,1.996-0.83c0.553-0.553,0.844-1.217,0.875-1.996v-24.982
		c-0.09-1.047-0.583-1.824-1.48-2.332c-0.449-0.238-0.913-0.359-1.391-0.359h-0.583v-0.447h17.179c0.926,0,1.943-0.09,3.05-0.27
		c1.106-0.18,1.884-0.359,2.333-0.539v7.85h-0.449v-0.539c0-1.346-0.396-2.428-1.188-3.252c-0.792-0.82-1.861-1.262-3.207-1.322
		h-7.535v13.053h5.92c1.106-0.029,2.019-0.412,2.736-1.145c0.717-0.732,1.076-1.637,1.076-2.713v-0.404h0.449v10.361h-0.449v-0.359
		c0-1.494-0.598-2.602-1.794-3.318c-0.599-0.33-1.256-0.508-1.974-0.539h-5.965v12.604h5.875c2.183,0,4.015-0.627,5.495-1.883
		s2.579-3.035,3.297-5.338h0.448l-2.063,9.15h-23.234v-0.449h0.583L213.976,183.402L213.976,183.402z"/>
	<path fill="#FFFFFF" d="M266.947,165.326c-1.017,2.334-2.901,3.947-5.651,4.846c-0.808,0.268-1.555,0.402-2.243,0.402
		c-2.124,0-4.022-0.553-5.696-1.658v-0.449c2.243,0.061,4.051-0.674,5.427-2.197c1.226-1.316,1.839-3.035,1.839-5.158
		c0-3.26-1.137-5.367-3.409-6.324c-0.718-0.299-1.511-0.449-2.377-0.449h-3.005v26.238c0,0.779,0.284,1.443,0.852,1.996
		c0.567,0.555,1.24,0.83,2.018,0.83h0.583v0.449H241.65v-0.449h0.583c0.777,0,1.442-0.275,1.996-0.83
		c0.553-0.553,0.845-1.217,0.875-1.996v-25.072c-0.12-1.016-0.628-1.764-1.525-2.242c-0.419-0.238-0.868-0.359-1.346-0.359h-0.583
		v-0.447h14.98c5.412,0,8.881,1.719,10.406,5.156c0.478,1.137,0.717,2.4,0.717,3.791S267.485,164.102,266.947,165.326z"/>
	<path fill="#FFFFFF" d="M284.44,171.113c-1.196,1.914-1.795,3.873-1.795,5.875c0,2.184,0.792,4.172,2.378,5.965
		c0.866,1.018,1.966,1.811,3.296,2.379c1.331,0.566,2.788,0.852,4.374,0.852c1.584,0,3.005-0.299,4.261-0.896
		c2.512-1.227,3.768-3.23,3.768-6.012c0-1.045-0.352-2.152-1.054-3.318c-0.703-1.166-1.758-2.213-3.162-3.141l-7.625-5.113
		c-2.961-1.854-4.44-4.244-4.44-7.176c0-0.299,0.015-0.598,0.045-0.896c0.179-2.303,1.099-4.178,2.758-5.629
		c1.66-1.451,3.88-2.176,6.661-2.176c1.704,0,3.768,0.15,6.189,0.449h2.781l-0.584,6.592h-0.403
		c-0.03-1.553-0.628-2.803-1.794-3.744s-2.707-1.412-4.62-1.412c-2.332,0-4.021,0.701-5.068,2.107
		c-0.509,0.717-0.763,1.496-0.763,2.332c0,0.838,0.254,1.547,0.763,2.131c0.508,0.582,1.315,1.219,2.422,1.906l8.388,5.473
		c1.704,1.105,3.035,2.406,3.992,3.9c1.136,1.766,1.704,3.574,1.704,5.428c0,1.197-0.246,2.461-0.74,3.791
		c-0.493,1.33-1.301,2.564-2.422,3.699c-1.121,1.137-2.564,2.064-4.328,2.781c-1.765,0.717-3.716,1.076-5.854,1.076
		s-4.074-0.373-5.809-1.121c-3.199-1.346-5.233-3.693-6.1-7.041c-0.179-0.719-0.269-1.465-0.269-2.244
		c0-2.512,0.882-4.889,2.646-7.131L284.44,171.113z"/>
	<path fill="#FFFFFF" d="M352.705,152.902h-0.403c-0.748,0-1.503,0.225-2.266,0.674c-0.762,0.447-1.308,1.092-1.637,1.928
		l-7.535,24.176c-0.509,1.645-0.763,3.17-0.763,4.574c0,0.15,0,0.285,0,0.404h-0.448l-9.778-21.664l-7.086,16.686
		c-0.688,1.734-1.048,3.395-1.077,4.979h-0.448l-10.72-29.154c-0.389-0.867-0.942-1.518-1.659-1.951
		c-0.718-0.434-1.45-0.65-2.198-0.65h-0.358v-0.447h13.68v0.447h-0.403c-0.628,0-1.1,0.201-1.413,0.605
		c-0.314,0.404-0.471,0.785-0.471,1.145c0,0.357,0.06,0.703,0.179,1.031l5.518,15.609l8.118-19.557l0.403,0.045l8.926,19.691
		l4.485-15.789c0.09-0.328,0.135-0.674,0.135-1.031c0-0.359-0.143-0.74-0.427-1.145s-0.755-0.605-1.413-0.605h-0.403v-0.447h9.464
		v0.446L352.705,152.902L352.705,152.902z"/>
	<path fill="#FFFFFF" d="M353.826,183.402c0.777,0,1.442-0.275,1.996-0.83c0.553-0.553,0.845-1.217,0.875-1.996v-24.893
		c-0.03-0.777-0.322-1.436-0.875-1.973c-0.554-0.539-1.219-0.809-1.996-0.809h-0.583v-0.447h13.636l-0.045,0.447h-0.539
		c-0.777,0-1.45,0.27-2.018,0.809c-0.568,0.537-0.853,1.195-0.853,1.973v24.893c0,0.779,0.284,1.443,0.853,1.996
		c0.567,0.555,1.24,0.83,2.018,0.83h0.539l0.045,0.449h-13.636v-0.449H353.826z"/>
	<path fill="#FFFFFF" d="M411.147,183.402h0.718v0.449h-13.456v-0.404h0.673c0.508,0,0.942-0.201,1.301-0.605
		s0.508-0.844,0.448-1.322l-1.749-16.283l-8.433,14.533c-1.106,1.854-1.675,3.514-1.704,4.979h-0.448l-11.527-19.377l-1.749,16.148
		c-0.061,0.479,0.09,0.918,0.448,1.322s0.792,0.605,1.301,0.605h0.673v0.404h-9.374v-0.449h0.718c0.836,0,1.562-0.254,2.175-0.762
		c0.612-0.508,0.979-1.195,1.099-2.064l3.723-28.75h0.404l13.904,22.875l13.366-22.875h0.403l3.812,28.75
		c0.149,0.869,0.53,1.557,1.144,2.064S410.34,183.402,411.147,183.402z"/>
	<path fill="#FFFFFF" d="M453.892,183.402h0.718v0.449h-13.456v-0.404h0.673c0.508,0,0.942-0.201,1.301-0.605
		s0.508-0.844,0.448-1.322l-1.749-16.283l-8.433,14.533c-1.106,1.854-1.675,3.514-1.704,4.979h-0.448l-11.527-19.377l-1.749,16.148
		c-0.061,0.479,0.09,0.918,0.448,1.322s0.792,0.605,1.301,0.605h0.673v0.404h-9.374v-0.449h0.718c0.836,0,1.562-0.254,2.175-0.762
		c0.612-0.508,0.979-1.195,1.099-2.064l3.723-28.75h0.404l13.904,22.875l13.366-22.875h0.403l3.812,28.75
		c0.149,0.869,0.53,1.557,1.144,2.064S453.084,183.402,453.892,183.402z"/>
	<path fill="#FFFFFF" d="M456.627,183.402c0.777,0,1.442-0.275,1.996-0.83c0.553-0.553,0.845-1.217,0.875-1.996v-24.893
		c-0.03-0.777-0.322-1.436-0.875-1.973c-0.554-0.539-1.219-0.809-1.996-0.809h-0.583v-0.447h13.636l-0.045,0.447h-0.539
		c-0.777,0-1.45,0.27-2.018,0.809c-0.568,0.537-0.853,1.195-0.853,1.973v24.893c0,0.779,0.284,1.443,0.853,1.996
		c0.567,0.555,1.24,0.83,2.018,0.83h0.539l0.045,0.449h-13.636v-0.449H456.627z"/>
	<path fill="#FFFFFF" d="M508.117,152.902c-0.748,0-1.391,0.262-1.929,0.785s-0.822,1.16-0.852,1.906v23.145
		c0,2.004,0.134,3.693,0.403,5.068l0.135,0.672h-0.404l-22.65-21.574v17.807c0,0.748,0.27,1.385,0.808,1.906
		c0.538,0.523,1.181,0.785,1.929,0.785h0.852v0.449h-13.59v-0.449h0.808c0.776,0,1.435-0.262,1.973-0.785
		c0.539-0.521,0.808-1.172,0.808-1.951v-23.277c0-1.975-0.135-3.619-0.403-4.934l-0.09-0.674h0.403l22.651,21.574v-17.717
		c-0.03-0.777-0.314-1.428-0.853-1.951s-1.182-0.785-1.929-0.785h-0.808v-0.447h13.591v0.447L508.117,152.902L508.117,152.902z"/>
	<path fill="#FFFFFF" d="M546.242,169.273h-0.673c-0.718,0-1.271,0.174-1.659,0.516c-0.39,0.346-0.583,0.846-0.583,1.504v7.4
		c-1.166,1.525-3.095,2.871-5.786,4.037s-5.712,1.748-9.061,1.748c-5.113,0-9.217-1.473-12.312-4.418
		c-3.095-2.945-4.642-6.922-4.642-11.93s1.547-8.979,4.642-11.908c3.096-2.932,7.289-4.396,12.582-4.396
		c2.392,0,4.709,0.232,6.952,0.695c2.242,0.463,4.051,1.039,5.427,1.727l0.09,7.715h-0.403c-0.778-2.9-2.108-5.002-3.992-6.303
		c-1.884-1.299-4.127-1.949-6.728-1.949c-3.619,0-6.399,1.293-8.343,3.879c-1.944,2.586-2.916,6.131-2.916,10.631
		s0.89,8.021,2.669,10.562c1.778,2.541,4.298,3.812,7.558,3.812c2.362,0,4.336-0.674,5.921-2.02
		c0.777-0.688,1.346-1.494,1.704-2.422v-6.861c0-0.658-0.202-1.158-0.605-1.504c-0.403-0.342-0.979-0.516-1.727-0.516h-0.718v-0.447
		h12.604L546.242,169.273L546.242,169.273z"/>
</g>
</svg>
