<?xml version="1.0" encoding="utf-8"?>
<!-- Generator: Adobe Illustrator 17.0.0, SVG Export Plug-In . SVG Version: 6.00 Build 0)  -->
<!DOCTYPE svg PUBLIC "-//W3C//DTD SVG 1.1//EN" "http://www.w3.org/Graphics/SVG/1.1/DTD/svg11.dtd">
<svg version="1.1" id="Layer_1" xmlns="http://www.w3.org/2000/svg" xmlns:xlink="http://www.w3.org/1999/xlink" x="0px" y="0px"
	 width="396.5px" height="151.5px" viewBox="0 0 396.5 151.5" enable-background="new 0 0 396.5 151.5" xml:space="preserve">
<g>
	<path fill="#D24A27" d="M165.579,27.043c0,0,19.5-0.75,23.75,24.75c0,0,7,35.25-19,44h33.75c0,0,32.25,0,38.75-30.25
		c0,0-14.083,4.501-20.25-18c0,0-4.417-25.082-28.75-29.75C193.829,17.793,173.829,15.043,165.579,27.043z"/>
	<path fill="#D24A27" d="M158.579,33.293c0,0,15.083,3.479,12.5,28.25c0,0-3.25,16.25-18.75,16.5c0,0-7.5,1-13.25-8
		c0,0,2.75,18.75,18,22.25c0,0,23.082,3.5,27.75-21c0,0,4.75-31-16.5-39.25C168.329,32.043,162.579,29.793,158.579,33.293z"/>
	<path fill="#D24A27" d="M149.886,38.01c0,0,9.442,3.407,8.567,16.65c0,0-1.625,9.007-11.5,9.591c0,0-4.365,0.705-7.869-4.46
		c0,0,1.908,10.909,10.872,12.708c0,0,12.688,2.292,15.873-12.713c0,0,2.277-18.186-10.268-22.663
		C155.561,37.124,152.166,35.902,149.886,38.01z"/>
	<path fill="#D24A27" d="M139.079,41.793c-3.329,3.008-3.93,8.258-0.143,12.455c3.787,4.195,9.557,5.159,12.889,2.153
		c3.33-3.007,2.962-8.846-0.824-13.042C147.213,39.163,142.412,38.788,139.079,41.793z"/>
</g>
<text transform="matrix(1 0 0 1 35.5375 120.7922)" font-family="'CinzelDecorative-Bold'" font-size="27">Just Keep Swimming</text>
</svg>
